<svg height="511pt" viewBox="0 -34 511.9995 511" width="511pt" xmlns="http://www.w3.org/2000/svg"><path d="m293.160156 440.105469-158.980468-158.984375c-3.914063-3.914063-3.914063-10.257813 0-14.171875l201.726562-201.730469c3.914062-3.914062 10.261719-3.914062 14.175781 0l158.980469 158.980469c3.914062 3.914062 3.914062 10.261719 0 14.175781l-201.726562 201.730469c-3.914063 3.914062-10.261719 3.914062-14.175782 0zm0 0" fill="#9cc6db"/><path d="m331 360.292969-117.007812-117.007813c-4.023438-4.023437-4.023438-10.546875 0-14.570312l122.453124-122.453125c4.023438-4.023438 10.542969-4.023438 14.566407 0l117.007812 117.007812c4.023438 4.023438 4.023438 10.546875 0 14.570313l-122.453125 122.453125c-4.019531 4.023437-10.542968 4.023437-14.566406 0zm0 0" fill="#3fefef"/><path d="m321.273438 392.3125c-1.976563 0-3.957032-.753906-5.464844-2.261719l-18.71875-18.722656c-3.019532-3.015625-3.019532-7.910156 0-10.925781 3.015625-3.019532 7.90625-3.019532 10.925781 0l18.722656 18.71875c3.015625 3.019531 3.015625 7.910156 0 10.929687-1.511719 1.507813-3.488281 2.261719-5.464843 2.261719zm0 0" fill="#3fefef"/><path d="m341 305.835938h-224.835938c-5.535156 0-10.019531-4.488282-10.019531-10.023438v-285.289062c0-5.535157 4.488281-10.023438 10.019531-10.023438h224.835938c5.535156 0 10.023438 4.488281 10.023438 10.023438v285.289062c0 5.535156-4.488282 10.023438-10.023438 10.023438zm0 0" fill="#bddff4"/><path d="m311.320312 222.644531h-165.472656c-5.691406 0-10.304687-4.613281-10.304687-10.304687v-173.175782c0-5.6875 4.613281-10.300781 10.304687-10.300781h165.472656c5.691407 0 10.300782 4.613281 10.300782 10.300781v173.175782c0 5.691406-4.613282 10.304687-10.300782 10.304687zm0 0" fill="#c0ff66"/><path d="m321.621094 254.421875h-26.476563c-4.265625 0-7.722656-3.457031-7.722656-7.722656 0-4.269531 3.457031-7.726563 7.722656-7.726563h26.476563c4.265625 0 7.726562 3.457032 7.726562 7.726563 0 4.265625-3.460937 7.722656-7.726562 7.722656zm0 0" fill="#c0ff66"/><path d="m234.855469 442.144531h-224.832031c-5.535157 0-10.023438-4.488281-10.023438-10.023437v-285.289063c0-5.539062 4.488281-10.023437 10.023438-10.023437h224.832031c5.539062 0 10.023437 4.488281 10.023437 10.023437v285.289063c0 5.535156-4.488281 10.023437-10.023437 10.023437zm0 0" fill="#e3f4ff"/><g fill="#7884ea"><path d="m205.175781 358.949219h-165.472656c-5.691406 0-10.300781-4.609375-10.300781-10.300781v-173.175782c0-5.6875 4.609375-10.300781 10.300781-10.300781h165.472656c5.691407 0 10.304688 4.613281 10.304688 10.300781v173.175782c0 5.691406-4.613281 10.300781-10.304688 10.300781zm0 0"/><path d="m215.480469 390.734375h-26.476563c-4.269531 0-7.726562-3.460937-7.726562-7.726563 0-4.269531 3.457031-7.726562 7.726562-7.726562h26.476563c4.265625 0 7.722656 3.457031 7.722656 7.726562 0 4.265626-3.457031 7.726563-7.722656 7.726563zm0 0"/></g></svg>